<?xml version="1.0" encoding="utf-8"?>
<!-- Generator: Adobe Illustrator 17.0.0, SVG Export Plug-In . SVG Version: 6.00 Build 0)  -->
<!DOCTYPE svg PUBLIC "-//W3C//DTD SVG 1.1//EN" "http://www.w3.org/Graphics/SVG/1.1/DTD/svg11.dtd">
<svg version="1.1" id="Capa_1" xmlns="http://www.w3.org/2000/svg" xmlns:xlink="http://www.w3.org/1999/xlink" x="0px" y="0px"
	 width="595.28px" height="841.89px" viewBox="0 0 595.28 841.89" enable-background="new 0 0 595.28 841.89" xml:space="preserve">
<g>
	<g>
		<g>
			<path fill="#1B1B47" d="M297.64,123.305c-123.096,0-223.23,100.145-223.23,223.23c0,164.686,205.96,360.423,214.729,368.683
				c2.397,2.24,5.449,3.367,8.501,3.367s6.104-1.127,8.503-3.367c8.768-8.26,214.727-203.997,214.727-368.683
				C520.87,223.45,420.736,123.305,297.64,123.305z M297.64,688.828C258.667,649.916,99.213,482.372,99.213,346.535
				c0-109.411,89.016-198.427,198.427-198.427s198.427,89.016,198.427,198.427C496.067,482.372,336.613,649.916,297.64,688.828z"/>
			<path fill="#1B1B47" d="M297.64,222.518c-68.379,0-124.017,55.638-124.017,124.017s55.639,124.017,124.017,124.017
				s124.017-55.638,124.017-124.017S366.019,222.518,297.64,222.518z M297.64,445.748c-54.718,0-99.213-44.508-99.213-99.213
				s44.496-99.213,99.213-99.213s99.213,44.508,99.213,99.213S352.358,445.748,297.64,445.748z"/>
		</g>
	</g>
</g>
</svg>
